{"id":361688,"avatar":"//lain.bgm.tv/pic/user/m/000/09/57/95768.jpg","floor":"#1","group":"～技术宅真可怕～","groupHref":"/group/a","groupThumb":"//lain.bgm.tv/pic/icon/m/000/00/00/11.jpg","message":"<span style=\"color: tomato;\">问题已解决，感谢各位的回复和推荐 ~</span><br><br><span style=\"color: red;\"><span style=\"font-size:16px; line-height:16px;\">总结：</span></span><br>方法一：Foobar2000 + freedb的标签获取器<br>能够自动搜索匹配修改 tag 信息。需要完整的音轨进行匹配。<br>经过个人测试，支持 Cue sheet 和 已经分轨的音乐文件。<br>日语歌曲可以添加 freedbtest.dyndns.org 这个服务器<br><br>方法二：  <a href=\"https://www.cnblogs.com/vinlxc/p/11347744.html\" target=\"_blank\" rel=\"nofollow external noopener noreferrer\" class=\"l\">MusicTag</a><br>个人没找到改软件修改 Cue sheet 的功能。<br>不过支持分轨后的音乐文件，数据源是国内的音乐网站为主。支持批量修改<br>如果这个软件自动匹配的数据不正确时，并且确认专辑信息在网易云、QQ 等网站上有先现成的，可以使用 MusicTag 修改正确专辑名称或者艺术家、标题等保存成后（填写越多越准确）。再使用 MusicTag 的自动匹配标签功能。<br><br>方法三：  Mp3tag<br>支持修改 Cue sheet 和 分轨音乐<br>同样也能够使用 freedb 的功能，如果不使用 Foobar2000 可以推荐使用这个软件。<br>数据源方面还是使用 last.fm 等（也许有插件功能支持添加国内的源）<br><br><br>有个游戏 OST ： <a href=\"https://bgm.tv/subject/279539\" target=\"_blank\" rel=\"nofollow external noopener noreferrer\" class=\"l\">Our Songs</a><br>这个 OST 的 cue 文件像这样<br><div class=\"codeHighlight\"><pre><br>  TRACK 01 AUDIO<br>    TITLE \"トラック01\"<br>    INDEX 01 00:00:00<br>  TRACK 02 AUDIO<br>    TITLE \"トラック02\"<br>    INDEX 01 04:03:66<br></pre></div><br>我希望修改成下面这样<br><div class=\"codeHighlight\"><pre><br>  TRACK 01 AUDIO<br>    TITLE \"アオナツライン\"<br>    PERFORMER \"KOTOKO\"<br>    INDEX 01 00:00:00<br>  TRACK 02 AUDIO<br>    TITLE \"結び目\"<br>    PERFORMER \"末柄里恵\"<br>    INDEX 01 04:03:66<br></pre></div><br>亚马逊和 last.fm 上面是没有这个 OST 曲目列表信息。但是 Bangumi 、豆瓣、网易云有对应歌曲的列表信息。<br><br>我在手动修改这个的时候就在想有没有辅助的工具快速的修改。<br>查询了一圈有如下工具等：<br><a href=\"https://github.com/karepker/track-list-to-cue-sheet\" target=\"_blank\" rel=\"nofollow external noopener noreferrer\" class=\"l\">karepker/track-list-to-cue-sheet</a><br><a href=\"https://github.com/globalnomad/quickCUE\" target=\"_blank\" rel=\"nofollow external noopener noreferrer\" class=\"l\">globalnomad/quickCUE</a><br><a href=\"https://github.com/dVaffection/cuegenerator\" target=\"_blank\" rel=\"nofollow external noopener noreferrer\" class=\"l\">Vaffection/cuegenerator</a><br><a href=\"https://github.com/audiotheme/cue\" target=\"_blank\" rel=\"nofollow external noopener noreferrer\" class=\"l\">audiotheme/cue</a>  <span style=\"font-size:10px; line-height:10px;\">这个利用的亚马逊的信息，不过是 Wordpress 插件<br></span><br>使用上面的工具好像和我手动改的效率差不多。<br><br>因为我需要改的 cue 比较少，其实这是一个伪需求。自己研究了一下，按照自己的需要也能简单的实现。<br>不知道有没有现成的工具快速编辑或者抓取其它网站的信息生成？再或者说有没有网站能够下载现成的 cue 文件？我很少逛分享音乐的论坛，猜测一下对应论坛一般能够找到网友分享的 cue 文件。 ","time":"2021-2-27 23:47","title":"【已解决】有没有快速编辑音乐 cue 文件 (Cue sheet) 的工具","userId":"a_little","userName":"拿月亮自刎","userSign":"(情更怯)"}